<?xml version="1.0" encoding="UTF-8"?>
<!-- Generated by jsxcad -->
<!DOCTYPE svg PUBLIC "-//W3C//DTD SVG 1.1 Tiny//EN" "http://www.w3.org/Graphics/SVG/1.1/DTD/svg11-tiny.dtd">
<svg viewBox="-250 -250 500 500" width="500" height="500" xmlns="http://www.w3.org/2000/svg"><path d="M-81.75902397560158,-90.34893853114693L28.800921355667317,112.20477567847063L54.2646461559238,121.5686386160522z" style="fill:rgb(57,36,182)"/><path d="M-53.215794483821824,-83.66147699091181L54.2646461559238,121.5686386160522L78.62998539960365,100.84177676575011z" style="fill:rgb(197,72,218)"/><path d="M-81.75902397560158,-90.34893853114693L54.2646461559238,121.5686386160522L-53.215794483821824,-83.66147699091181z" style="fill:rgb(57,36,182)"/><path d="M78.62998539960365,100.84177676575011L-22.55805989795118,-107.25007332810979L-53.215794483821824,-83.66147699091181z" style="fill:rgb(197,72,218)"/><path d="M-33.1521478920705,-127.36946592830964L-68.84175455571808,-116.97471260530504L-53.77720091590344,-121.36232932879496z" style="fill:rgb(162,5,114)"/><path d="M-53.77720091590344,-121.36232932879496L-27.12583186081593,-115.92479602294611L-33.1521478920705,-127.36946592830964zM-22.55805989795118,-107.25007332810979L-53.77720091590344,-121.36232932879496L-68.84175455571808,-116.97471260530504zM-22.55805989795118,-107.25007332810979L-33.1521478920705,-127.36946592830964L-53.77720091590344,-121.36232932879496zM-68.84175455571808,-116.97471260530504L-81.75902397560158,-90.34893853114693L-22.55805989795118,-107.25007332810979z" style="fill:rgb(83,212,212)"/><path d="M-22.55805989795118,-107.25007332810979L-33.1521478920705,-127.36946592830964L-27.12583186081593,-115.92479602294611z" style="fill:rgb(31,171,199)"/><path d="M-81.75902397560158,-90.34893853114693L-53.215794483821824,-83.66147699091181L-22.55805989795118,-107.25007332810979zM-28.923681709300222,-176.17933715556956L-98.70298118284434,-155.02945217146637L-69.60723651161327,-90.56439105104167z" style="fill:rgb(83,212,212)"/><path d="M-54.41087811365227,-62.15959483817596L-125.82399347702703,-103.59505799201936L-109.96073945865282,-76.14982841391227z" style="fill:rgb(57,36,182)"/><path d="M-98.70298118284434,-155.02945217146637L-125.82399347702703,-103.59505799201936L-69.60723651161327,-90.56439105104167zM-69.60723651161327,-90.56439105104167L-7.21571207168858,-138.23753576050584L-28.923681709300222,-176.17933715556956z" style="fill:rgb(83,212,212)"/><path d="M-54.41087811365227,-62.15959483817596L-69.60723651161327,-90.56439105104167L-125.82399347702703,-103.59505799201936z" style="fill:rgb(57,36,182)"/><path d="M6.189043950903304,-109.1277449363353L-69.60723651161327,-90.56439105104167L-54.41087811365227,-62.15959483817596zM6.189043950903304,-109.1277449363353L-7.21571207168858,-138.23753576050584L-69.60723651161327,-90.56439105104167z" style="fill:rgb(197,72,218)"/></svg>
