<?xml version="1.0" encoding="UTF-8"?>
<!-- Generated by jsxcad -->
<!DOCTYPE svg PUBLIC "-//W3C//DTD SVG 1.1 Tiny//EN" "http://www.w3.org/Graphics/SVG/1.1/DTD/svg11-tiny.dtd">
<svg viewBox="-250 -250 500 500" width="500" height="500" xmlns="http://www.w3.org/2000/svg"><path d="M31.60817494240857,121.27752011352389L-82.15299189485843,-84.54678779296515L29.036551163697276,117.98701758905051z" style="fill:rgb(21,57,142)"/><path d="M-20.670475192944664,-114.61869427467366L80.42275217624243,97.75744606643849L79.60213267447426,93.61688622442678z" style="fill:rgb(246,167,149)"/><path d="M35.04613839032089,123.92058961873579L-79.54797087532857,-81.5025844644491L31.60817494240857,121.27752011352389z" style="fill:rgb(34,46,160)"/><path d="M80.42275217624243,97.75744606643849L-20.86079438506693,-106.08815252397818L80.20205127015359,102.16876486965141z" style="fill:rgb(246,149,167)"/><path d="M39.22443301791262,125.80475253527345L-75.85723232598559,-79.20162284456522L35.04613839032089,123.92058961873579z" style="fill:rgb(51,38,177)"/><path d="M80.20205127015359,102.16876486965141L-22.809378373289476,-101.40347535787711L78.93750124782038,106.67908280075976z" style="fill:rgb(242,130,183)"/><path d="M-65.788389623636,-77.20266646937151L39.22443301791262,125.80475253527345L43.9840687957381,126.84723771465936z" style="fill:rgb(71,33,192)"/><path d="M78.93750124782038,106.67908280075976L-25.925549247657475,-96.68300289381104L76.66955713919184,111.10906129688333z" style="fill:rgb(233,112,197)"/><path d="M-59.79678701523811,-77.60539210943924L43.9840687957381,126.84723771465936L49.138853542646494,126.99879408491651z" style="fill:rgb(92,32,204)"/><path d="M76.66955713919184,111.10906129688333L-30.09409674336015,-92.11853583410864L73.48140924374312,115.27956638422054z" style="fill:rgb(220,94,208)"/><path d="M-53.47793005370792,-78.94514195754259L49.138853542646494,126.99879408491651L54.48299781687093,126.24708568005394z" style="fill:rgb(115,34,214)"/><path d="M73.48140924374312,115.27956638422054L-35.15218975035891,-87.8984544495745L69.49651288648371,119.01989768897167z" style="fill:rgb(203,77,216)"/><path d="M-35.15218975035891,-87.8984544495745L64.87368969573741,122.17603247147667L69.49651288648371,119.01989768897167z" style="fill:rgb(183,62,221)"/><path d="M-47.08983822403492,-81.17246758977454L54.48299781687093,126.24708568005394L59.80020434514945,124.6181791308749z" style="fill:rgb(139,40,220)"/><path d="M-40.8959680950602,-84.19841993158252L59.80020434514945,124.6181791308749L64.87368969573741,122.17603247147667z" style="fill:rgb(162,50,222)"/><path d="M-82.15299189485843,-84.54678779296515L31.60817494240857,121.27752011352389L-79.54797087532857,-81.5025844644491z" style="fill:rgb(21,57,142)"/><path d="M80.42275217624243,97.75744606643849L-20.670475192944664,-114.61869427467366L-20.14378390938085,-110.55078001242997z" style="fill:rgb(246,167,149)"/><path d="M-79.54797087532857,-81.5025844644491L35.04613839032089,123.92058961873579L-75.85723232598559,-79.20162284456522z" style="fill:rgb(34,46,160)"/><path d="M-20.86079438506693,-106.08815252397818L80.42275217624243,97.75744606643849L-20.14378390938085,-110.55078001242997z" style="fill:rgb(246,149,167)"/><path d="M-75.85723232598559,-79.20162284456522L39.22443301791262,125.80475253527345L-71.2124661805902,-77.74533790381965z" style="fill:rgb(51,38,177)"/><path d="M-22.809378373289476,-101.40347535787711L80.20205127015359,102.16876486965141L-20.86079438506693,-106.08815252397818z" style="fill:rgb(242,130,183)"/><path d="M39.22443301791262,125.80475253527345L-65.788389623636,-77.20266646937151L-71.2124661805902,-77.74533790381965z" style="fill:rgb(71,33,192)"/><path d="M-25.925549247657475,-96.68300289381104L78.93750124782038,106.67908280075976L-22.809378373289476,-101.40347535787711z" style="fill:rgb(233,112,197)"/><path d="M43.9840687957381,126.84723771465936L-59.79678701523811,-77.60539210943924L-65.788389623636,-77.20266646937151z" style="fill:rgb(92,32,204)"/><path d="M-30.09409674336015,-92.11853583410864L76.66955713919184,111.10906129688333L-25.925549247657475,-96.68300289381104z" style="fill:rgb(220,94,208)"/><path d="M49.138853542646494,126.99879408491651L-53.47793005370792,-78.94514195754259L-59.79678701523811,-77.60539210943924z" style="fill:rgb(115,34,214)"/><path d="M-35.15218975035891,-87.8984544495745L73.48140924374312,115.27956638422054L-30.09409674336015,-92.11853583410864z" style="fill:rgb(203,77,216)"/><path d="M54.48299781687093,126.24708568005394L-47.08983822403492,-81.17246758977454L-53.47793005370792,-78.94514195754259z" style="fill:rgb(139,40,220)"/><path d="M64.87368969573741,122.17603247147667L-35.15218975035891,-87.8984544495745L-40.8959680950602,-84.19841993158252z" style="fill:rgb(183,62,221)"/><path d="M59.80020434514945,124.6181791308749L-40.8959680950602,-84.19841993158252L-47.08983822403492,-81.17246758977454z" style="fill:rgb(162,50,222)"/><path d="M-77.527545643139,-105.87565831589198L-79.54797087532857,-81.5025844644491L-73.41112256657117,-110.21975759315576zM-80.71106684076851,-101.33622038962952L-82.15299189485843,-84.54678779296515L-77.527545643139,-105.87565831589198zM-68.51672306870155,-114.21369588135032L-71.2124661805902,-77.74533790381965L-63.023283878254915,-117.7162623010673zM-82.83617711602848,-96.76570216810772L-83.58699023552572,-88.20626422643507L-80.71106684076851,-101.33622038962952zM-73.41112256657117,-110.21975759315576L-71.2124661805902,-77.74533790381965L-68.51672306870155,-114.21369588135032zM-63.023283878254915,-117.7162623010673L-59.79678701523811,-77.60539210943924L-57.12826668506596,-120.60351353728775zM-83.58699023552572,-88.20626422643507L-82.83617711602848,-96.76570216810772L-83.81199180578211,-92.33300641494787zM-57.12826668506596,-120.60351353728775L-53.47793005370792,-78.94514195754259L-51.04201131700705,-122.77203876906702zM-51.04201131700705,-122.77203876906702L-47.08983822403492,-81.17246758977454L-44.981986106691714,-124.141833288817zM-80.71106684076851,-101.33622038962952L-83.58699023552572,-88.20626422643507L-82.15299189485843,-84.54678779296515zM-44.981986106691714,-124.141833288817L-40.8959680950602,-84.19841993158252L-39.16680389682234,-124.65885905969176zM-77.527545643139,-105.87565831589198L-82.15299189485843,-84.54678779296515L-79.54797087532857,-81.5025844644491zM-39.16680389682234,-124.65885905969176L-35.15218975035891,-87.8984544495745L-33.80989582934112,-124.29729797223644zM-73.41112256657117,-110.21975759315576L-79.54797087532857,-81.5025844644491L-75.85723232598559,-79.20162284456522zM-33.80989582934112,-124.29729797223644L-35.15218975035891,-87.8984544495745L-29.11285576920208,-123.06134463182197zM-29.11285576920208,-123.06134463182197L-25.925549247657475,-96.68300289381104L-25.258398671242766,-120.98642182221388zM-73.41112256657117,-110.21975759315576L-75.85723232598559,-79.20162284456522L-71.2124661805902,-77.74533790381965zM-25.258398671242766,-120.98642182221388L-22.809378373289476,-101.40347535787711L-22.403148749293628,-118.1395451882814zM-63.023283878254915,-117.7162623010673L-71.2124661805902,-77.74533790381965L-65.788389623636,-77.20266646937151zM-22.403148749293628,-118.1395451882814L-20.86079438506693,-106.08815252397818L-20.670475192944664,-114.61869427467366zM-114.58669309856876,-137.1573039195295L-113.5427100812646,-86.57360863456788L-106.55761440952794,-145.29666359551416zM-63.023283878254915,-117.7162623010673L-65.788389623636,-77.20266646937151L-59.79678701523811,-77.60539210943924zM-106.55761440952794,-145.29666359551416L-104.67828297040965,-83.75772734731551L-97.1297464874307,-152.79457926079283zM-120.92231677353887,-128.64595208599633L-120.43576384939034,-91.01475183981059L-114.58669309856876,-137.1573039195295zM-97.1297464874307,-152.79457926079283L-94.16517781962355,-82.7249047226817L-86.63094704755896,-159.40659439290005zM-125.31193513149813,-120.05281256233711L-125.134421920064,-96.86172210282467L-120.92231677353887,-128.64595208599633zM-57.12826668506596,-120.60351353728775L-59.79678701523811,-77.60539210943924L-53.47793005370792,-78.94514195754259zM-20.670475192944664,-114.61869427467366L-20.86079438506693,-106.08815252397818L-20.14378390938085,-110.55078001242997zM-86.63094704755896,-159.40659439290005L-82.41729676698331,-83.55712661271396L-75.41465774565913,-164.916796067875zM-51.04201131700705,-122.77203876906702L-53.47793005370792,-78.94514195754259L-47.08983822403492,-81.17246758977454zM-22.403148749293628,-118.1395451882814L-22.809378373289476,-101.40347535787711L-20.86079438506693,-106.08815252397818zM-127.51642383083973,-103.84944832988312L-125.31193513149813,-120.05281256233711L-127.55540607444676,-111.68311857929207zM-44.981986106691714,-124.141833288817L-47.08983822403492,-81.17246758977454L-40.8959680950602,-84.19841993158252zM-25.258398671242766,-120.98642182221388L-25.925549247657475,-96.68300289381104L-22.809378373289476,-101.40347535787711zM-39.16680389682234,-124.65885905969176L-40.8959680950602,-84.19841993158252L-35.15218975035891,-87.8984544495745zM-75.41465774565913,-164.916796067875L-69.92316781986595,-86.25006934347162L-63.85321932204795,-169.14092570938902zM-29.11285576920208,-123.06134463182197L-30.09409674336015,-92.11853583410864L-25.925549247657475,-96.68300289381104zM-29.11285576920208,-123.06134463182197L-35.15218975035891,-87.8984544495745L-30.09409674336015,-92.11853583410864zM-63.85321932204795,-169.14092570938902L-57.22161198366316,-90.70820227291894L-52.33147858218675,-171.9296878382342z" style="fill:rgb(83,212,212)"/><path d="M-104.43160465063585,-63.40516204599414L-125.134421920064,-96.86172210282467L-109.16210286115765,-69.36163404933356z" style="fill:rgb(21,57,142)"/><path d="M-125.31193513149813,-120.05281256233711L-127.51642383083973,-103.84944832988312L-125.134421920064,-96.86172210282467zM-52.33147858218675,-171.9296878382342L-44.87151850958332,-96.74671905397973L-41.24015944117723,-173.1726257802169z" style="fill:rgb(83,212,212)"/><path d="M-5.205973310532966,-155.6322390208587L9.179247534362569,-118.94116357069461L7.9120863373227035,-126.61768725055877z" style="fill:rgb(246,167,149)"/><path d="M-120.92231677353887,-128.64595208599633L-125.134421920064,-96.86172210282467L-120.43576384939034,-91.01475183981059zM-41.24015944117723,-173.1726257802169L-33.41839016258716,-104.10066482896696L-30.96816000448006,-172.80250632444233zM-30.96816000448006,-172.80250632444233L-23.36130241855076,-112.44076710786483L-21.893242422570673,-170.8001838677816z" style="fill:rgb(83,212,212)"/><path d="M-97.56764540053373,-58.83099256643787L-120.43576384939034,-91.01475183981059L-104.43160465063585,-63.40516204599414z" style="fill:rgb(34,46,160)"/><path d="M-114.58669309856876,-137.1573039195295L-120.43576384939034,-91.01475183981059L-113.5427100812646,-86.57360863456788z" style="fill:rgb(83,212,212)"/><path d="M-125.134421920064,-96.86172210282467L-104.43160465063585,-63.40516204599414L-120.43576384939034,-91.01475183981059z" style="fill:rgb(21,57,142)"/><path d="M-21.893242422570673,-170.8001838677816L-15.123829289420616,-121.39403437683869L-14.370605924508899,-167.19966908037625zM-106.55761440952794,-145.29666359551416L-113.5427100812646,-86.57360863456788L-104.67828297040965,-83.75772734731551z" style="fill:rgb(83,212,212)"/><path d="M9.179247534362569,-118.94116357069461L-5.205973310532966,-155.6322390208587L-4.028968989499621,-148.03294468063532z" style="fill:rgb(246,167,149)"/><path d="M9.179247534362569,-118.94116357069461L-5.300412935589613,-139.56899486934742L8.052076400216015,-110.43728063935033z" style="fill:rgb(246,149,167)"/><path d="M-14.370605924508899,-167.19966908037625L-9.031903251062923,-130.56700438251463L-8.719193897553122,-162.09274134258297z" style="fill:rgb(83,212,212)"/><path d="M-88.79469076664093,-55.862154401035404L-113.5427100812646,-86.57360863456788L-97.56764540053373,-58.83099256643787z" style="fill:rgb(51,38,177)"/><path d="M-97.1297464874307,-152.79457926079283L-104.67828297040965,-83.75772734731551L-94.16517781962355,-82.7249047226817z" style="fill:rgb(83,212,212)"/><path d="M-120.43576384939034,-91.01475183981059L-97.56764540053373,-58.83099256643787L-113.5427100812646,-86.57360863456788z" style="fill:rgb(34,46,160)"/><path d="M-5.300412935589613,-139.56899486934742L9.179247534362569,-118.94116357069461L-4.028968989499621,-148.03294468063532z" style="fill:rgb(246,149,167)"/><path d="M-86.63094704755896,-159.40659439290005L-94.16517781962355,-82.7249047226817L-82.41729676698331,-83.55712661271396zM-8.719193897553122,-162.09274134258297L-9.031903251062923,-130.56700438251463L-5.205973310532966,-155.6322390208587z" style="fill:rgb(83,212,212)"/><path d="M8.052076400216015,-110.43728063935033L-9.031903251062923,-130.56700438251463L4.515914005089235,-101.43521525105945z" style="fill:rgb(242,130,183)"/><path d="M-75.41465774565913,-164.916796067875L-82.41729676698331,-83.55712661271396L-69.92316781986595,-86.25006934347162zM-5.205973310532966,-155.6322390208587L-5.300412935589613,-139.56899486934742L-4.028968989499621,-148.03294468063532z" style="fill:rgb(83,212,212)"/><path d="M-94.16517781962355,-82.7249047226817L-88.79469076664093,-55.862154401035404L-78.43355909415254,-54.66112628557234z" style="fill:rgb(71,33,192)"/><path d="M-63.85321932204795,-169.14092570938902L-69.92316781986595,-86.25006934347162L-57.22161198366316,-90.70820227291894z" style="fill:rgb(83,212,212)"/><path d="M-113.5427100812646,-86.57360863456788L-88.79469076664093,-55.862154401035404L-104.67828297040965,-83.75772734731551z" style="fill:rgb(51,38,177)"/><path d="M-9.031903251062923,-130.56700438251463L8.052076400216015,-110.43728063935033L-5.300412935589613,-139.56899486934742z" style="fill:rgb(242,130,183)"/><path d="M-14.370605924508899,-167.19966908037625L-15.123829289420616,-121.39403437683869L-9.031903251062923,-130.56700438251463z" style="fill:rgb(83,212,212)"/><path d="M4.515914005089235,-101.43521525105945L-15.123829289420616,-121.39403437683869L-1.3355835288669118,-92.30241642588732z" style="fill:rgb(233,112,197)"/><path d="M-52.33147858218675,-171.9296878382342L-57.22161198366316,-90.70820227291894L-44.87151850958332,-96.74671905397973zM-5.205973310532966,-155.6322390208587L-9.031903251062923,-130.56700438251463L-5.300412935589613,-139.56899486934742zM-21.893242422570673,-170.8001838677816L-23.36130241855076,-112.44076710786483L-15.123829289420616,-121.39403437683869zM-41.24015944117723,-173.1726257802169L-44.87151850958332,-96.74671905397973L-33.41839016258716,-104.10066482896696zM-30.96816000448006,-172.80250632444233L-33.41839016258716,-104.10066482896696L-23.36130241855076,-112.44076710786483z" style="fill:rgb(83,212,212)"/><path d="M-88.79469076664093,-55.862154401035404L-94.16517781962355,-82.7249047226817L-104.67828297040965,-83.75772734731551z" style="fill:rgb(71,33,192)"/><path d="M-82.41729676698331,-83.55712661271396L-78.43355909415254,-54.66112628557234L-66.89268288853742,-55.31568021293958z" style="fill:rgb(92,32,204)"/><path d="M-1.3355835288669118,-92.30241642588732L-23.36130241855076,-112.44076710786483L-9.296474028444248,-83.42766422403827z" style="fill:rgb(220,94,208)"/><path d="M-15.123829289420616,-121.39403437683869L4.515914005089235,-101.43521525105945L-9.031903251062923,-130.56700438251463z" style="fill:rgb(233,112,197)"/><path d="M-69.92316781986595,-86.25006934347162L-66.89268288853742,-55.31568021293958L-54.65161292395605,-57.82832208310819z" style="fill:rgb(115,34,214)"/><path d="M-9.296474028444248,-83.42766422403827L-33.41839016258716,-104.10066482896696L-19.052534550687593,-75.20034812050496z" style="fill:rgb(203,77,216)"/><path d="M-78.43355909415254,-54.66112628557234L-82.41729676698331,-83.55712661271396L-94.16517781962355,-82.7249047226817z" style="fill:rgb(92,32,204)"/><path d="M-57.22161198366316,-90.70820227291894L-54.65161292395605,-57.82832208310819L-42.23718323094127,-62.11117599178168z" style="fill:rgb(139,40,220)"/><path d="M-33.41839016258716,-104.10066482896696L-30.194078941165817,-67.98750389413252L-19.052534550687593,-75.20034812050496z" style="fill:rgb(183,62,221)"/><path d="M-44.87151850958332,-96.74671905397973L-42.23718323094127,-62.11117599178168L-30.194078941165817,-67.98750389413252z" style="fill:rgb(162,50,222)"/><path d="M-23.36130241855076,-112.44076710786483L-1.3355835288669118,-92.30241642588732L-15.123829289420616,-121.39403437683869z" style="fill:rgb(220,94,208)"/><path d="M-66.89268288853742,-55.31568021293958L-69.92316781986595,-86.25006934347162L-82.41729676698331,-83.55712661271396z" style="fill:rgb(115,34,214)"/><path d="M-33.41839016258716,-104.10066482896696L-9.296474028444248,-83.42766422403827L-23.36130241855076,-112.44076710786483z" style="fill:rgb(203,77,216)"/><path d="M-54.65161292395605,-57.82832208310819L-57.22161198366316,-90.70820227291894L-69.92316781986595,-86.25006934347162z" style="fill:rgb(139,40,220)"/><path d="M-30.194078941165817,-67.98750389413252L-33.41839016258716,-104.10066482896696L-44.87151850958332,-96.74671905397973z" style="fill:rgb(183,62,221)"/><path d="M-42.23718323094127,-62.11117599178168L-44.87151850958332,-96.74671905397973L-57.22161198366316,-90.70820227291894z" style="fill:rgb(162,50,222)"/></svg>
