<?xml version="1.0" encoding="UTF-8"?>
<!-- Generated by jsxcad -->
<!DOCTYPE svg PUBLIC "-//W3C//DTD SVG 1.1 Tiny//EN" "http://www.w3.org/Graphics/SVG/1.1/DTD/svg11-tiny.dtd">
<svg viewBox="-250 -250 500 500" width="500" height="500" xmlns="http://www.w3.org/2000/svg"><path d="M-82.52148755839421,-89.96504340950578L28.174045809586403,112.51840361158264L54.29099642698277,122.133224879041z" style="fill:rgb(57,36,182)"/><path d="M-53.24740316835511,-83.09276719003422L54.29099642698277,122.133224879041L79.28854208941273,100.86441716017507z" style="fill:rgb(197,72,218)"/><path d="M67.9656807995172,79.0171340167839L-32.67470478533652,-127.92557790152127L-32.674873504011764,-127.92549756040242z" style="fill:rgb(163,50,222)"/><path d="M67.9656807995172,79.0171340167839L-32.67529971438088,-127.92680573856447L-32.67470478533652,-127.92557790152127z" style="fill:rgb(14,69,127)"/><path d="M54.29099642698277,122.133224879041L-53.24740316835511,-83.09276719003422L-82.52148755839421,-89.96504340950578z" style="fill:rgb(57,36,182)"/><path d="M-21.79155776757529,-107.30013976640588L-53.24740316835511,-83.09276719003422L79.28854208941273,100.86441716017507z" style="fill:rgb(197,72,218)"/><path d="M-32.67529971438088,-127.92680573856447L-69.2634054537866,-117.26654876563535L-82.52148755839421,-89.96504340950578z" style="fill:rgb(83,212,212)"/><path d="M-21.790994991084364,-107.29897135528866L-32.67470478533652,-127.92557790152127L-32.674873504011764,-127.92549756040242z" style="fill:rgb(86,213,212)"/><path d="M-21.79155776757529,-107.30013976640588L-32.67529971438088,-127.92680573856447L-82.52148755839421,-89.96504340950578zM-28.923681709300222,-176.17933715556956L-98.70298118284434,-155.02945217146637L-125.82399347702703,-103.59505799201936zM-82.52148755839421,-89.96504340950578L-53.24740316835511,-83.09276719003422L-21.79155776757529,-107.30013976640588z" style="fill:rgb(83,212,212)"/><path d="M-54.41087811365227,-62.15959483817596L-125.82399347702703,-103.59505799201936L-109.96073945865282,-76.14982841391227z" style="fill:rgb(57,36,182)"/><path d="M-125.82399347702703,-103.59505799201936L-69.60723651161327,-90.56439105104167L-28.923681709300222,-176.17933715556956zM-69.60723651161327,-90.56439105104167L-7.21571207168858,-138.23753576050584L-28.923681709300222,-176.17933715556956z" style="fill:rgb(83,212,212)"/><path d="M-54.41087811365227,-62.15959483817596L-69.60723651161327,-90.56439105104167L-125.82399347702703,-103.59505799201936z" style="fill:rgb(57,36,182)"/><path d="M6.189043950903304,-109.1277449363353L-69.60723651161327,-90.56439105104167L-54.41087811365227,-62.15959483817596zM6.189043950903304,-109.1277449363353L-7.21571207168858,-138.23753576050584L-69.60723651161327,-90.56439105104167z" style="fill:rgb(197,72,218)"/></svg>
