solid JSxCAD
facet normal -0.8660253028382761 -0.5000001748438416 0
outer loop
vertex -2 0 -20
vertex -1 -1.73205 0
vertex -2 0 0
endloop
endfacet
facet normal -0.8660253028382761 -0.5000001748438416 0
outer loop
vertex -1 -1.73205 0
vertex -2 0 -20
vertex -1 -1.73205 -20
endloop
endfacet
facet normal -0.8660253028382761 0.5000001748438416 0
outer loop
vertex -1 1.73205 -20
vertex -2 0 0
vertex -1 1.73205 0
endloop
endfacet
facet normal -0.8660253028382761 0.5000001748438416 0
outer loop
vertex -2 0 0
vertex -1 1.73205 -20
vertex -2 0 -20
endloop
endfacet
facet normal 0 1 0
outer loop
vertex -1 1.73205 -20
vertex 1 1.73205 0
vertex 1 1.73205 -20
endloop
endfacet
facet normal 0 1 0
outer loop
vertex 1 1.73205 0
vertex -1 1.73205 -20
vertex -1 1.73205 0
endloop
endfacet
facet normal 0.8660253028382761 0.5000001748438416 0
outer loop
vertex 2 0 -20
vertex 1 1.73205 0
vertex 2 0 0
endloop
endfacet
facet normal 0.8660253028382761 0.5000001748438416 0
outer loop
vertex 1 1.73205 0
vertex 2 0 -20
vertex 1 1.73205 -20
endloop
endfacet
facet normal 0.8660253028382761 -0.5000001748438416 0
outer loop
vertex 1 -1.73205 -20
vertex 2 0 0
vertex 1 -1.73205 0
endloop
endfacet
facet normal 0.8660253028382761 -0.5000001748438416 0
outer loop
vertex 2 0 0
vertex 1 -1.73205 -20
vertex 2 0 -20
endloop
endfacet
facet normal 0 -1 0
outer loop
vertex -1 -1.73205 0
vertex 1 -1.73205 -20
vertex 1 -1.73205 0
endloop
endfacet
facet normal 0 -1 0
outer loop
vertex 1 -1.73205 -20
vertex -1 -1.73205 0
vertex -1 -1.73205 -20
endloop
endfacet
facet normal 0 0 1
outer loop
vertex 1 1.73205 0
vertex 1 -1.73205 0
vertex 2 0 0
endloop
endfacet
facet normal 0 0 1
outer loop
vertex -1 1.73205 0
vertex 1 -1.73205 0
vertex 1 1.73205 0
endloop
endfacet
facet normal 0 0 1
outer loop
vertex -1 1.73205 0
vertex -1 -1.73205 0
vertex 1 -1.73205 0
endloop
endfacet
facet normal 0 0 1
outer loop
vertex -1 -1.73205 0
vertex -1 1.73205 0
vertex -2 0 0
endloop
endfacet
facet normal 0 0 -1
outer loop
vertex 1 -1.73205 -20
vertex 1 1.73205 -20
vertex 2 0 -20
endloop
endfacet
facet normal 0 0 -1
outer loop
vertex 1 -1.73205 -20
vertex -1 1.73205 -20
vertex 1 1.73205 -20
endloop
endfacet
facet normal 0 0 -1
outer loop
vertex -1 -1.73205 -20
vertex -1 1.73205 -20
vertex 1 -1.73205 -20
endloop
endfacet
facet normal 0 0 -1
outer loop
vertex -1 1.73205 -20
vertex -1 -1.73205 -20
vertex -2 0 -20
endloop
endfacet
facet normal -0.4154145934959554 -0.9096321869363407 0
outer loop
vertex -2.48847 -2.87185 0
vertex -0.5408 -3.76132 2.2
vertex -2.48847 -2.87185 2.2
endloop
endfacet
facet normal -0.4154145934959554 -0.909632186936341 0
outer loop
vertex -0.5408 -3.76132 2.2
vertex -2.48847 -2.87185 0
vertex -0.5408 -3.76132 0
endloop
endfacet
facet normal -0.84125479422016 -0.5406388546909999 0
outer loop
vertex -3.64607 -1.07058 0
vertex -2.48847 -2.87185 2.2
vertex -3.64607 -1.07058 2.2
endloop
endfacet
facet normal -0.84125479422016 -0.5406388546909999 0
outer loop
vertex -2.48847 -2.87185 2.2
vertex -3.64607 -1.07058 0
vertex -2.48847 -2.87185 0
endloop
endfacet
facet normal -1 0 0
outer loop
vertex -3.64607 1.07058 0
vertex -3.64607 -1.07058 2.2
vertex -3.64607 1.07058 2.2
endloop
endfacet
facet normal -1 0 0
outer loop
vertex -3.64607 -1.07058 2.2
vertex -3.64607 1.07058 0
vertex -3.64607 -1.07058 0
endloop
endfacet
facet normal -0.84125479422016 0.5406388546909999 0
outer loop
vertex -2.48847 2.87185 0
vertex -3.64607 1.07058 2.2
vertex -2.48847 2.87185 2.2
endloop
endfacet
facet normal -0.84125479422016 0.5406388546909999 0
outer loop
vertex -3.64607 1.07058 2.2
vertex -2.48847 2.87185 0
vertex -3.64607 1.07058 0
endloop
endfacet
facet normal -0.4154145934959554 0.909632186936341 0
outer loop
vertex -0.5408 3.76132 0
vertex -2.48847 2.87185 2.2
vertex -0.5408 3.76132 2.2
endloop
endfacet
facet normal -0.4154145934959554 0.9096321869363407 0
outer loop
vertex -2.48847 2.87185 2.2
vertex -0.5408 3.76132 0
vertex -2.48847 2.87185 0
endloop
endfacet
facet normal 0.1423144535780507 0.9898214971916808 0
outer loop
vertex 1.57858 3.4566 0
vertex -0.5408 3.76132 2.2
vertex 1.57858 3.4566 2.2
endloop
endfacet
facet normal 0.1423144535780507 0.989821497191681 0
outer loop
vertex -0.5408 3.76132 2.2
vertex 1.57858 3.4566 0
vertex -0.5408 3.76132 0
endloop
endfacet
facet normal 0.6548604800664057 0.7557497943414848 0
outer loop
vertex 3.19676 2.05444 0
vertex 1.57858 3.4566 2.2
vertex 3.19676 2.05444 2.2
endloop
endfacet
facet normal 0.6548604800664057 0.7557497943414848 0
outer loop
vertex 1.57858 3.4566 2.2
vertex 3.19676 2.05444 0
vertex 1.57858 3.4566 0
endloop
endfacet
facet normal 0.9594927226508457 0.28173341154372744 0
outer loop
vertex 3.8 0 0
vertex 3.19676 2.05444 2.2
vertex 3.8 0 2.2
endloop
endfacet
facet normal 0.9594927226508455 0.2817334115437277 0
outer loop
vertex 3.19676 2.05444 2.2
vertex 3.8 0 0
vertex 3.19676 2.05444 0
endloop
endfacet
facet normal 0.9594927226508455 -0.2817334115437277 0
outer loop
vertex 3.19676 -2.05444 0
vertex 3.8 0 2.2
vertex 3.19676 -2.05444 2.2
endloop
endfacet
facet normal 0.9594927226508457 -0.28173341154372744 0
outer loop
vertex 3.8 0 2.2
vertex 3.19676 -2.05444 0
vertex 3.8 0 0
endloop
endfacet
facet normal 0.6548604800664057 -0.7557497943414848 0
outer loop
vertex 1.57858 -3.4566 0
vertex 3.19676 -2.05444 2.2
vertex 1.57858 -3.4566 2.2
endloop
endfacet
facet normal 0.6548604800664057 -0.7557497943414848 0
outer loop
vertex 3.19676 -2.05444 2.2
vertex 1.57858 -3.4566 0
vertex 3.19676 -2.05444 0
endloop
endfacet
facet normal 0.1423144535780507 -0.989821497191681 0
outer loop
vertex -0.5408 -3.76132 0
vertex 1.57858 -3.4566 2.2
vertex -0.5408 -3.76132 2.2
endloop
endfacet
facet normal 0.1423144535780507 -0.9898214971916808 0
outer loop
vertex 1.57858 -3.4566 2.2
vertex -0.5408 -3.76132 0
vertex 1.57858 -3.4566 0
endloop
endfacet
facet normal 0 0 1
outer loop
vertex -2.48847 2.87185 2.2
vertex 1.57858 3.4566 2.2
vertex -0.5408 3.76132 2.2
endloop
endfacet
facet normal 0 0 0.9999999999999999
outer loop
vertex -2.48847 2.87185 2.2
vertex 3.19676 2.05444 2.2
vertex 1.57858 3.4566 2.2
endloop
endfacet
facet normal 0 0 1
outer loop
vertex -3.64607 1.07058 2.2
vertex 3.19676 2.05444 2.2
vertex -2.48847 2.87185 2.2
endloop
endfacet
facet normal 0 0 1
outer loop
vertex -3.64607 1.07058 2.2
vertex 3.8 0 2.2
vertex 3.19676 2.05444 2.2
endloop
endfacet
facet normal 0 0 1
outer loop
vertex -3.64607 -1.07058 2.2
vertex 3.8 0 2.2
vertex -3.64607 1.07058 2.2
endloop
endfacet
facet normal 0 0 1
outer loop
vertex -3.64607 -1.07058 2.2
vertex 3.19676 -2.05444 2.2
vertex 3.8 0 2.2
endloop
endfacet
facet normal 0 0 1
outer loop
vertex -2.48847 -2.87185 2.2
vertex 3.19676 -2.05444 2.2
vertex -3.64607 -1.07058 2.2
endloop
endfacet
facet normal 0 0 0.9999999999999999
outer loop
vertex -2.48847 -2.87185 2.2
vertex 1.57858 -3.4566 2.2
vertex 3.19676 -2.05444 2.2
endloop
endfacet
facet normal 0 0 1
outer loop
vertex 1.57858 -3.4566 2.2
vertex -2.48847 -2.87185 2.2
vertex -0.5408 -3.76132 2.2
endloop
endfacet
facet normal 0 0 -1
outer loop
vertex 3.19676 -2.05444 0
vertex 3.19676 2.05444 0
vertex 3.8 0 0
endloop
endfacet
facet normal 0 0 -1
outer loop
vertex 3.19676 -2.05444 0
vertex 1.57858 3.4566 0
vertex 3.19676 2.05444 0
endloop
endfacet
facet normal 0 0 -1
outer loop
vertex 1.57858 -3.4566 0
vertex 1.57858 3.4566 0
vertex 3.19676 -2.05444 0
endloop
endfacet
facet normal 0 0 -0.9999999999999999
outer loop
vertex 1.57858 -3.4566 0
vertex -0.5408 3.76132 0
vertex 1.57858 3.4566 0
endloop
endfacet
facet normal 0 0 -1
outer loop
vertex -0.5408 -3.76132 0
vertex -0.5408 3.76132 0
vertex 1.57858 -3.4566 0
endloop
endfacet
facet normal 0 0 -1
outer loop
vertex -0.5408 -3.76132 0
vertex -2.48847 2.87185 0
vertex -0.5408 3.76132 0
endloop
endfacet
facet normal 0 0 -1
outer loop
vertex -2.48847 -2.87185 0
vertex -2.48847 2.87185 0
vertex -0.5408 -3.76132 0
endloop
endfacet
facet normal 0 0 -1
outer loop
vertex -2.48847 -2.87185 0
vertex -3.64607 1.07058 0
vertex -2.48847 2.87185 0
endloop
endfacet
facet normal 0 0 -1
outer loop
vertex -3.64607 1.07058 0
vertex -2.48847 -2.87185 0
vertex -3.64607 -1.07058 0
endloop
endfacet
endsolid JSxCAD
