<?xml version="1.0" encoding="UTF-8"?>
<!-- Generated by jsxcad -->
<!DOCTYPE svg PUBLIC "-//W3C//DTD SVG 1.1 Tiny//EN" "http://www.w3.org/Graphics/SVG/1.1/DTD/svg11-tiny.dtd">
<svg viewBox="-250 -250 500 500" width="500" height="500" xmlns="http://www.w3.org/2000/svg"><path d="M-81.36396051905142,-83.39497476154642L29.83881391298573,119.21433900024947L35.96806513896136,124.43579683124636z" style="fill:rgb(31,48,157)"/><path d="M-20.325790669536932,-108.48972639109999L80.44977686287542,99.80989076021537L78.97040682102079,92.02799816019501z" style="fill:rgb(246,166,149)"/><path d="M-74.84435021858297,-78.7798358357231L35.96806513896136,124.43579683124636L44.573879837862904,126.91183224773364z" style="fill:rgb(64,34,187)"/><path d="M-23.780695078277713,-99.73165221974831L78.24828200437891,108.2611175704408L80.44977686287542,99.80989076021537z" style="fill:rgb(242,132,181)"/><path d="M-65.10847164082266,-77.20083396478155L44.573879837862904,126.91183224773364L54.48299781687093,126.24708568005394z" style="fill:rgb(105,33,210)"/><path d="M-31.211170898181052,-91.08778019237211L72.61010525562338,116.20440144201328L78.24828200437891,108.2611175704408z" style="fill:rgb(223,97,206)"/><path d="M-53.47793005370792,-78.94514195754259L54.48299781687093,126.24708568005394L64.29629425284716,122.50258475199212z" style="fill:rgb(149,44,221)"/><path d="M-41.60615860940284,-83.80477358465443L64.29629425284716,122.50258475199212L72.61010525562338,116.20440144201328z" style="fill:rgb(190,67,220)"/><path d="M78.97040682102079,92.02799816019501L-21.241672171174276,-116.14260491413755L-20.325790669536932,-108.48972639109999z" style="fill:rgb(246,166,149)"/><path d="M35.96806513896136,124.43579683124636L-74.84435021858297,-78.7798358357231L-81.36396051905142,-83.39497476154642z" style="fill:rgb(31,48,157)"/><path d="M80.44977686287542,99.80989076021537L-20.325790669536932,-108.48972639109999L-23.780695078277713,-99.73165221974831z" style="fill:rgb(242,132,181)"/><path d="M44.573879837862904,126.91183224773364L-65.10847164082266,-77.20083396478155L-74.84435021858297,-78.7798358357231z" style="fill:rgb(64,34,187)"/><path d="M78.24828200437891,108.2611175704408L-23.780695078277713,-99.73165221974831L-31.211170898181052,-91.08778019237211z" style="fill:rgb(223,97,206)"/><path d="M54.48299781687093,126.24708568005394L-53.47793005370792,-78.94514195754259L-65.10847164082266,-77.20083396478155z" style="fill:rgb(105,33,210)"/><path d="M72.61010525562338,116.20440144201328L-31.211170898181052,-91.08778019237211L-41.60615860940284,-83.80477358465443z" style="fill:rgb(190,67,220)"/><path d="M64.29629425284716,122.50258475199212L-41.60615860940284,-83.80477358465443L-53.47793005370792,-78.94514195754259z" style="fill:rgb(149,44,221)"/><path d="M-56.77345771498451,-120.75190610385746L-67.58534029041034,-114.87125441224956L-76.40718610080724,-107.18079138081505zM-74.74043958152744,-165.202518426148L-85.34160166291936,-160.1158543961007L-95.34501780307893,-154.03238330403556zM-34.71289452881683,-124.4250910234013L-45.33378972860962,-124.08450978360204L-56.77345771498451,-120.75190610385746zM-34.71289452881683,-124.4250910234013L-56.77345771498451,-120.75190610385746L-76.40718610080724,-107.18079138081505zM-53.00110521112875,-171.80756855815213L-63.85321932204795,-169.14092570938902L-74.74043958152744,-165.202518426148zM-74.74043958152744,-165.202518426148L-95.34501780307893,-154.03238330403556L-112.38858770641895,-139.6023246562167zM-95.34501780307893,-154.03238330403556L-104.453422155818,-147.1280552591419L-112.38858770641895,-139.6023246562167zM-32.70445570658103,-172.98658443403332L-53.00110521112875,-171.80756855815213L-74.74043958152744,-165.202518426148zM-32.70445570658103,-172.98658443403332L-74.74043958152744,-165.202518426148L-112.38858770641895,-139.6023246562167zM-76.40718610080724,-107.18079138081505L-82.0959516697685,-98.640707371966L-83.85727015680037,-90.34277233787104zM-32.70445570658103,-172.98658443403332L-42.50992885218731,-173.10920205185147L-53.00110521112875,-171.80756855815213zM-112.38858770641895,-139.6023246562167L-118.89640483802262,-131.67467560724734L-123.75430450374282,-123.58175205671324zM-21.241672171174276,-116.14260491413755L-26.29484890243812,-121.68041449797619L-34.71289452881683,-124.4250910234013zM-34.71289452881683,-124.4250910234013L-76.40718610080724,-107.18079138081505L-65.10847164082266,-77.20083396478155zM-76.40718610080724,-107.18079138081505L-83.85727015680037,-90.34277233787104L-65.10847164082266,-77.20083396478155zM-112.38858770641895,-139.6023246562167L-123.75430450374282,-123.58175205671324L-127.82698317560376,-107.91078847423198zM-23.780695078277713,-99.73165221974831L-21.241672171174276,-116.14260491413755L-34.71289452881683,-124.4250910234013zM-16.402262371341827,-168.4202816215618L-23.901595835665997,-171.41722496624507L-32.70445570658103,-172.98658443403332zM-123.75430450374282,-123.58175205671324L-126.77728145333018,-115.57417711492086L-127.82698317560376,-107.91078847423198zM-83.85727015680037,-90.34277233787104L-81.36396051905142,-83.39497476154642L-65.10847164082266,-77.20083396478155zM-65.10847164082266,-77.20083396478155L-23.780695078277713,-99.73165221974831L-34.71289452881683,-124.4250910234013zM-23.780695078277713,-99.73165221974831L-20.325790669536932,-108.48972639109999L-21.241672171174276,-116.14260491413755zM-6.379141802818427,-158.4440219586655L-16.402262371341827,-168.4202816215618L-32.70445570658103,-172.98658443403332zM-81.36396051905142,-83.39497476154642L-74.84435021858297,-78.7798358357231L-65.10847164082266,-77.20083396478155zM-10.921097934958974,-127.32915298022593L-32.70445570658103,-172.98658443403332L-112.38858770641895,-139.6023246562167zM-112.38858770641895,-139.6023246562167L-127.82698317560376,-107.91078847423198L-111.62389288650024,-85.75793193906694z" style="fill:rgb(83,212,212)"/><path d="M6.717714515668236,-129.47111986744025L-4.28251377133134,-151.73486003400055L8.876450150321114,-122.67500803804104z" style="fill:rgb(245,174,141)"/><path d="M-102.62616063059492,-61.905344265340084L-123.73640871768448,-94.65334662391663L-107.7461074895854,-67.11748414954066z" style="fill:rgb(25,53,148)"/><path d="M-6.379141802818427,-158.4440219586655L-10.48212276374239,-164.05898056505083L-16.402262371341827,-168.4202816215618zM-65.10847164082266,-77.20083396478155L-41.60615860940284,-83.80477358465443L-23.780695078277713,-99.73165221974831z" style="fill:rgb(83,212,212)"/><path d="M6.717714515668236,-129.47111986744025L-6.379141802818427,-158.4440219586655L-4.28251377133134,-151.73486003400055z" style="fill:rgb(245,174,141)"/><path d="M-41.60615860940284,-83.80477358465443L-31.211170898181052,-91.08778019237211L-23.780695078277713,-99.73165221974831zM-127.82698317560376,-107.91078847423198L-126.81997177931325,-100.85238623506083L-123.73640871768448,-94.65334662391663zM-65.10847164082266,-77.20083396478155L-53.47793005370792,-78.94514195754259L-41.60615860940284,-83.80477358465443z" style="fill:rgb(83,212,212)"/><path d="M8.876450150321114,-122.67500803804104L-4.319090089507089,-144.1387809936804L8.950400946725855,-115.02335751330311z" style="fill:rgb(247,158,158)"/><path d="M-95.66475375019722,-57.98095865338571L-118.62821398255765,-89.55175556139442L-102.62616063059492,-61.905344265340084z" style="fill:rgb(38,43,165)"/><path d="M-10.921097934958974,-127.32915298022593L-6.379141802818427,-158.4440219586655L-32.70445570658103,-172.98658443403332z" style="fill:rgb(83,212,212)"/><path d="M-102.62616063059492,-61.905344265340084L-118.62821398255765,-89.55175556139442L-123.73640871768448,-94.65334662391663z" style="fill:rgb(25,53,148)"/><path d="M8.876450150321114,-122.67500803804104L-4.28251377133134,-151.73486003400055L-4.319090089507089,-144.1387809936804z" style="fill:rgb(247,158,158)"/><path d="M-127.82698317560376,-107.91078847423198L-123.73640871768448,-94.65334662391663L-111.62389288650024,-85.75793193906694zM-112.38858770641895,-139.6023246562167L-111.62389288650024,-85.75793193906694L-10.921097934958974,-127.32915298022593z" style="fill:rgb(83,212,212)"/><path d="M8.950400946725855,-115.02335751330311L-6.5420164014736875,-135.90729799854284L6.88498925198049,-106.77065032580632z" style="fill:rgb(245,141,174)"/><path d="M-87.07105535535175,-55.51816118195072L-111.62389288650024,-85.75793193906694L-95.66475375019722,-57.98095865338571z" style="fill:rgb(55,36,180)"/><path d="M-4.319090089507089,-144.1387809936804L-4.28251377133134,-151.73486003400055L-6.379141802818427,-158.4440219586655z" style="fill:rgb(83,212,212)"/><path d="M-95.66475375019722,-57.98095865338571L-111.62389288650024,-85.75793193906694L-118.62821398255765,-89.55175556139442z" style="fill:rgb(38,43,165)"/><path d="M8.950400946725855,-115.02335751330311L-4.319090089507089,-144.1387809936804L-6.5420164014736875,-135.90729799854284z" style="fill:rgb(245,141,174)"/><path d="M-123.73640871768448,-94.65334662391663L-118.62821398255765,-89.55175556139442L-111.62389288650024,-85.75793193906694z" style="fill:rgb(83,212,212)"/><path d="M6.88498925198049,-106.77065032580632L-10.921097934958974,-127.32915298022593L2.7068258423615488,-98.20699541424025z" style="fill:rgb(239,123,188)"/><path d="M-77.12836055374336,-54.64101467484671L-102.93211731200672,-83.4424654854867L-87.07105535535175,-55.51816118195072z" style="fill:rgb(74,33,194)"/><path d="M-10.921097934958974,-127.32915298022593L-4.319090089507089,-144.1387809936804L-6.379141802818427,-158.4440219586655z" style="fill:rgb(83,212,212)"/><path d="M-87.07105535535175,-55.51816118195072L-102.93211731200672,-83.4424654854867L-111.62389288650024,-85.75793193906694z" style="fill:rgb(55,36,180)"/><path d="M6.88498925198049,-106.77065032580632L-6.5420164014736875,-135.90729799854284L-10.921097934958974,-127.32915298022593z" style="fill:rgb(239,123,188)"/><path d="M2.7068258423615488,-98.20699541424025L-17.336371764785092,-118.72019135092931L-3.470057678291466,-89.64782791630661z" style="fill:rgb(229,106,201)"/><path d="M-66.18706189541932,-55.4124392999353L-92.83833903455746,-82.72532243181165L-77.12836055374336,-54.64101467484671z" style="fill:rgb(94,32,205)"/><path d="M-3.470057678291466,-89.64782791630661L-25.578261699449317,-110.40893795424337L-11.444316430058944,-81.41948171830386z" style="fill:rgb(216,89,211)"/><path d="M-77.12836055374336,-54.64101467484671L-92.83833903455746,-82.72532243181165L-102.93211731200672,-83.4424654854867z" style="fill:rgb(74,33,194)"/><path d="M-54.65161292395605,-57.82832208310819L-81.69795729833729,-83.66448547630361L-66.18706189541932,-55.4124392999353z" style="fill:rgb(116,34,214)"/><path d="M-10.921097934958974,-127.32915298022593L-6.5420164014736875,-135.90729799854284L-4.319090089507089,-144.1387809936804z" style="fill:rgb(83,212,212)"/><path d="M2.7068258423615488,-98.20699541424025L-10.921097934958974,-127.32915298022593L-17.336371764785092,-118.72019135092931z" style="fill:rgb(229,106,201)"/><path d="M-11.444316430058944,-81.41948171830386L-35.351517512774464,-102.72111088531886L-20.931020206811876,-73.84382017890825z" style="fill:rgb(199,74,218)"/><path d="M-42.96244888199921,-61.81298423709486L-69.92316781986595,-86.25006934347162L-54.65161292395605,-57.82832208310819z" style="fill:rgb(138,40,220)"/><path d="M-111.62389288650024,-85.75793193906694L-102.93211731200672,-83.4424654854867L-92.83833903455746,-82.72532243181165z" style="fill:rgb(83,212,212)"/><path d="M-20.931020206811876,-73.84382017890825L-46.28813232584511,-95.96230893165438L-31.574039849790495,-67.22122947360208z" style="fill:rgb(180,60,221)"/><path d="M-31.574039849790495,-67.22122947360208L-57.96446274158724,-90.39998283888265L-42.96244888199921,-61.81298423709486z" style="fill:rgb(160,49,222)"/><path d="M-66.18706189541932,-55.4124392999353L-81.69795729833729,-83.66448547630361L-92.83833903455746,-82.72532243181165z" style="fill:rgb(94,32,205)"/><path d="M-3.470057678291466,-89.64782791630661L-17.336371764785092,-118.72019135092931L-25.578261699449317,-110.40893795424337z" style="fill:rgb(216,89,211)"/><path d="M-111.62389288650024,-85.75793193906694L-69.92316781986595,-86.25006934347162L-10.921097934958974,-127.32915298022593zM-111.62389288650024,-85.75793193906694L-92.83833903455746,-82.72532243181165L-69.92316781986595,-86.25006934347162z" style="fill:rgb(83,212,212)"/><path d="M-54.65161292395605,-57.82832208310819L-69.92316781986595,-86.25006934347162L-81.69795729833729,-83.66448547630361z" style="fill:rgb(116,34,214)"/><path d="M-11.444316430058944,-81.41948171830386L-25.578261699449317,-110.40893795424337L-35.351517512774464,-102.72111088531886z" style="fill:rgb(199,74,218)"/><path d="M-42.96244888199921,-61.81298423709486L-57.96446274158724,-90.39998283888265L-69.92316781986595,-86.25006934347162z" style="fill:rgb(138,40,220)"/><path d="M-20.931020206811876,-73.84382017890825L-35.351517512774464,-102.72111088531886L-46.28813232584511,-95.96230893165438z" style="fill:rgb(180,60,221)"/><path d="M-25.578261699449317,-110.40893795424337L-17.336371764785092,-118.72019135092931L-10.921097934958974,-127.32915298022593z" style="fill:rgb(83,212,212)"/><path d="M-31.574039849790495,-67.22122947360208L-46.28813232584511,-95.96230893165438L-57.96446274158724,-90.39998283888265z" style="fill:rgb(160,49,222)"/><path d="M-92.83833903455746,-82.72532243181165L-81.69795729833729,-83.66448547630361L-69.92316781986595,-86.25006934347162zM-46.28813232584511,-95.96230893165438L-25.578261699449317,-110.40893795424337L-10.921097934958974,-127.32915298022593zM-69.92316781986595,-86.25006934347162L-46.28813232584511,-95.96230893165438L-10.921097934958974,-127.32915298022593zM-46.28813232584511,-95.96230893165438L-35.351517512774464,-102.72111088531886L-25.578261699449317,-110.40893795424337zM-69.92316781986595,-86.25006934347162L-57.96446274158724,-90.39998283888265L-46.28813232584511,-95.96230893165438z" style="fill:rgb(83,212,212)"/></svg>
