<?xml version="1.0" encoding="UTF-8"?>
<!-- Generated by jsxcad -->
<!DOCTYPE svg PUBLIC "-//W3C//DTD SVG 1.1 Tiny//EN" "http://www.w3.org/Graphics/SVG/1.1/DTD/svg11-tiny.dtd">
<svg viewBox="-250 -250 500 500" width="500" height="500" xmlns="http://www.w3.org/2000/svg"><path d="M-24.167209776156135,-120.94036966628417L77.47486698479821,108.79336322807184L76.00042446258254,86.90915280587676z" style="fill:rgb(247,158,158)"/><path d="M-53.428869532723624,-79.82784413636148L30.626898616868417,119.38921041602099L54.44216129519886,125.37211406732592z" style="fill:rgb(67,34,190)"/><path d="M-24.74056981492693,-99.1094616255818L54.44216129519886,125.37211406732592L77.47486698479821,108.79336322807184z" style="fill:rgb(187,64,221)"/><path d="M77.47486698479821,108.79336322807184L-24.167209776156135,-120.94036966628417L-24.74056981492693,-99.1094616255818z" style="fill:rgb(247,158,158)"/><path d="M30.626898616868417,119.38921041602099L-53.428869532723624,-79.82784413636148L-80.46962064047528,-83.30367636359823z" style="fill:rgb(67,34,190)"/><path d="M54.44216129519886,125.37211406732592L-24.74056981492693,-99.1094616255818L-53.428869532723624,-79.82784413636148z" style="fill:rgb(187,64,221)"/><path d="M-80.46962064047528,-83.30367636359823L-50.99731615796733,-123.57619126138798L-78.62999648505829,-105.20033696185308zM-50.99731615796733,-123.57619126138798L-24.74056981492693,-99.1094616255818L-24.167209776156135,-120.94036966628417zM-50.99731615796733,-123.57619126138798L-80.46962064047528,-83.30367636359823L-53.428869532723624,-79.82784413636148zM-124.33536335244094,-96.57767811584233L-109.55873945794112,-143.1897945018571L-126.03027824076717,-118.56462113081048zM-109.55873945794112,-143.1897945018571L-103.68685893654528,-84.49443975970163L-80.50789630722377,-163.33108978835386zM-50.99731615796733,-123.57619126138798L-53.428869532723624,-79.82784413636148L-24.74056981492693,-99.1094616255818zM-80.50789630722377,-163.33108978835386L-69.85592023323122,-87.16839839464885L-47.17138264478164,-173.4587020292866z" style="fill:rgb(83,212,212)"/><path d="M-87.83172028005,-56.587431279444914L-124.33536335244094,-96.57767811584233L-108.37004491460065,-69.06325030780299z" style="fill:rgb(36,45,163)"/><path d="M-47.17138264478164,-173.4587020292866L-34.37579849546791,-104.28901879308812L-18.94332958396382,-170.45825894841462zM-109.55873945794112,-143.1897945018571L-124.33536335244094,-96.57767811584233L-103.68685893654528,-84.49443975970163zM-18.94332958396382,-170.45825894841462L-9.959253957838408,-129.76672368050768L-4.64256193684264,-154.48425828759804z" style="fill:rgb(83,212,212)"/><path d="M8.482669839024954,-125.45146831182083L-9.959253957838408,-129.76672368050768L3.61633086196816,-100.64470246127743zM-9.959253957838408,-129.76672368050768L8.482669839024954,-125.45146831182083L-4.64256193684264,-154.48425828759804z" style="fill:rgb(246,145,170)"/><path d="M-80.50789630722377,-163.33108978835386L-103.68685893654528,-84.49443975970163L-69.85592023323122,-87.16839839464885z" style="fill:rgb(83,212,212)"/><path d="M-124.33536335244094,-96.57767811584233L-87.83172028005,-56.587431279444914L-103.68685893654528,-84.49443975970163z" style="fill:rgb(36,45,163)"/><path d="M-47.17138264478164,-173.4587020292866L-69.85592023323122,-87.16839839464885L-34.37579849546791,-104.28901879308812zM-18.94332958396382,-170.45825894841462L-34.37579849546791,-104.28901879308812L-9.959253957838408,-129.76672368050768z" style="fill:rgb(83,212,212)"/><path d="M-69.85592023323122,-87.16839839464885L-87.83172028005,-56.587431279444914L-54.60037588744256,-58.75017561575011z" style="fill:rgb(93,32,205)"/><path d="M3.61633086196816,-100.64470246127743L-34.37579849546791,-104.28901879308812L-19.99617954220387,-75.40480481059055z" style="fill:rgb(218,91,209)"/><path d="M-87.83172028005,-56.587431279444914L-69.85592023323122,-87.16839839464885L-103.68685893654528,-84.49443975970163z" style="fill:rgb(93,32,205)"/><path d="M-34.37579849546791,-104.28901879308812L3.61633086196816,-100.64470246127743L-9.959253957838408,-129.76672368050768z" style="fill:rgb(218,91,209)"/><path d="M-34.37579849546791,-104.28901879308812L-54.60037588744256,-58.75017561575011L-19.99617954220387,-75.40480481059055zM-54.60037588744256,-58.75017561575011L-34.37579849546791,-104.28901879308812L-69.85592023323122,-87.16839839464885z" style="fill:rgb(161,49,222)"/></svg>
