<?xml version="1.0" encoding="UTF-8"?>
<!-- Generated by jsxcad -->
<!DOCTYPE svg PUBLIC "-//W3C//DTD SVG 1.1 Tiny//EN" "http://www.w3.org/Graphics/SVG/1.1/DTD/svg11-tiny.dtd">
<svg viewBox="-250 -250 500 500" width="500" height="500" xmlns="http://www.w3.org/2000/svg"><path d="M-81.36390113321195,-83.39502203901013L29.838857081132378,119.21428284784253L35.96804749090367,124.43576729006467z" style="fill:rgb(31,48,157)"/><path d="M-20.32581656403279,-108.48975428065938L80.4497534202986,99.80985979831694L78.9704238271924,92.02804262917378z" style="fill:rgb(246,166,149)"/><path d="M-74.84437267846278,-78.77985816710776L35.96804749090367,124.43576729006467L44.57383698178982,126.91189094170329z" style="fill:rgb(64,34,187)"/><path d="M-23.78074996068717,-99.73167161436825L78.2482312622392,108.26108608525509L80.4497534202986,99.80985979831694z" style="fill:rgb(242,132,181)"/><path d="M-65.10852845353728,-77.20076200740019L44.57383698178982,126.91189094170329L54.48299781687093,126.24708568005394z" style="fill:rgb(105,33,210)"/><path d="M-31.211149468362393,-91.08781221055663L72.61011750294347,116.20437179789005L78.2482312622392,108.26108608525509z" style="fill:rgb(223,97,206)"/><path d="M-53.47793005370792,-78.94514195754259L54.48299781687093,126.24708568005394L64.29634559137236,122.5026185966943z" style="fill:rgb(149,44,221)"/><path d="M-41.606106765692054,-83.80473705003608L64.29634559137236,122.5026185966943L72.61011750294347,116.20437179789005z" style="fill:rgb(190,67,220)"/><path d="M78.9704238271924,92.02804262917378L-21.24165285961767,-116.14257035363028L-20.32581656403279,-108.48975428065938z" style="fill:rgb(246,166,149)"/><path d="M35.96804749090367,124.43576729006467L-74.84437267846278,-78.77985816710776L-81.36390113321195,-83.39502203901013z" style="fill:rgb(31,48,157)"/><path d="M80.4497534202986,99.80985979831694L-20.32581656403279,-108.48975428065938L-23.78074996068717,-99.73167161436825z" style="fill:rgb(242,132,181)"/><path d="M44.57383698178982,126.91189094170329L-65.10852845353728,-77.20076200740019L-74.84437267846278,-78.77985816710776z" style="fill:rgb(64,34,187)"/><path d="M78.2482312622392,108.26108608525509L-23.78074996068717,-99.73167161436825L-31.211149468362393,-91.08781221055663z" style="fill:rgb(223,97,206)"/><path d="M54.48299781687093,126.24708568005394L-53.47793005370792,-78.94514195754259L-65.10852845353728,-77.20076200740019z" style="fill:rgb(105,33,210)"/><path d="M72.61011750294347,116.20437179789005L-31.211149468362393,-91.08781221055663L-41.606106765692054,-83.80473705003608z" style="fill:rgb(190,67,220)"/><path d="M64.29634559137236,122.5026185966943L-41.606106765692054,-83.80473705003608L-53.47793005370792,-78.94514195754259z" style="fill:rgb(149,44,221)"/><path d="M-56.77344478879803,-120.751872656597L-67.58540006303389,-114.87127931492583L-76.40725767847825,-107.18076649966352zM-74.74041786714426,-165.2025075006144L-85.3415663814476,-160.11591224516596L-95.34505424224938,-154.03231032304268zM-34.712824976601794,-124.42515967470707L-45.33380749296934,-124.08446649912139L-56.77344478879803,-120.751872656597zM-53.001138632033886,-171.8075403527149L-74.74041786714426,-165.2025075006144L-95.34505424224938,-154.03231032304268zM-34.712824976601794,-124.42515967470707L-56.77344478879803,-120.751872656597L-76.40725767847825,-107.18076649966352zM-53.001138632033886,-171.8075403527149L-63.85321932204795,-169.14092570938902L-74.74041786714426,-165.2025075006144zM-95.34505424224938,-154.03231032304268L-104.45347192630948,-147.1280782979752L-112.3885151333157,-139.60235691034194zM-76.40725767847825,-107.18076649966352L-82.09597969307438,-98.6406635508044L-83.85724313105035,-90.34281832098507zM-95.34505424224938,-154.03231032304268L-112.3885151333157,-139.60235691034194L-123.75426563911421,-123.58176215611654zM-32.704421136619345,-172.98654643534186L-42.50995080240996,-173.10924115739064L-53.001138632033886,-171.8075403527149zM-16.402336064201457,-168.4202749374057L-53.001138632033886,-171.8075403527149L-95.34505424224938,-154.03231032304268zM-112.3885151333157,-139.60235691034194L-118.89641850018683,-131.67462501208968L-123.75426563911421,-123.58176215611654zM-21.24165285961767,-116.14257035363028L-26.294778470662177,-121.68042546633438L-34.712824976601794,-124.42515967470707zM-34.712824976601794,-124.42515967470707L-76.40725767847825,-107.18076649966352L-65.10852845353728,-77.20076200740019zM-16.402336064201457,-168.4202749374057L-32.704421136619345,-172.98654643534186L-53.001138632033886,-171.8075403527149zM-76.40725767847825,-107.18076649966352L-83.85724313105035,-90.34281832098507L-65.10852845353728,-77.20076200740019zM-23.78074996068717,-99.73167161436825L-21.24165285961767,-116.14257035363028L-34.712824976601794,-124.42515967470707zM-16.402336064201457,-168.4202749374057L-23.90153771921332,-171.41728512468518L-32.704421136619345,-172.98654643534186zM-95.34505424224938,-154.03231032304268L-123.75426563911421,-123.58176215611654L-123.73641013641456,-94.65339187357075zM-123.75426563911421,-123.58176215611654L-126.77728245438952,-115.57417802834044L-127.82698317550201,-107.91079676474229zM-83.85724313105035,-90.34281832098507L-81.36390113321195,-83.39502203901013L-65.10852845353728,-77.20076200740019zM-65.10852845353728,-77.20076200740019L-23.78074996068717,-99.73167161436825L-34.712824976601794,-124.42515967470707zM-23.78074996068717,-99.73167161436825L-20.32581656403279,-108.48975428065938L-21.24165285961767,-116.14257035363028zM-81.36390113321195,-83.39502203901013L-74.84437267846278,-78.77985816710776L-65.10852845353728,-77.20076200740019zM-123.75426563911421,-123.58176215611654L-127.82698317550201,-107.91079676474229L-123.73641013641456,-94.65339187357075z" style="fill:rgb(83,212,212)"/><path d="M6.717673505170555,-129.471103463441L-4.282516156183963,-151.73486003400055L8.876448082077633,-122.67500803804104z" style="fill:rgb(245,174,141)"/><path d="M-102.62608999263722,-61.9053467375857L-123.73641013641456,-94.65339187357075L-107.74610975896805,-67.11752982661747z" style="fill:rgb(25,53,148)"/><path d="M-6.379184353330461,-158.44400514884663L-10.482114935782466,-164.0589384590984L-16.402336064201457,-168.4202749374057zM-25.57820203490541,-110.4089103214452L-16.402336064201457,-168.4202749374057L-95.34505424224938,-154.03231032304268zM-65.10852845353728,-77.20076200740019L-41.606106765692054,-83.80473705003608L-23.78074996068717,-99.73167161436825z" style="fill:rgb(83,212,212)"/><path d="M6.717673505170555,-129.471103463441L-6.379184353330461,-158.44400514884663L-4.282516156183963,-151.73486003400055z" style="fill:rgb(245,174,141)"/><path d="M-41.606106765692054,-83.80473705003608L-31.211149468362393,-91.08781221055663L-23.78074996068717,-99.73167161436825zM-127.82698317550201,-107.91079676474229L-126.81993098255224,-100.85240377171921L-123.73641013641456,-94.65339187357075zM-65.10852845353728,-77.20076200740019L-53.47793005370792,-78.94514195754259L-41.606106765692054,-83.80473705003608z" style="fill:rgb(83,212,212)"/><path d="M8.876448082077633,-122.67500803804104L-4.319092494728386,-144.1387809936804L8.950398861251582,-115.02335751330311z" style="fill:rgb(247,158,158)"/><path d="M-95.66481542072847,-57.980897742097405L-118.62814125913576,-89.55175849262126L-102.62608999263722,-61.9053467375857z" style="fill:rgb(38,43,165)"/><path d="M-95.34505424224938,-154.03231032304268L-123.73641013641456,-94.65339187357075L-25.57820203490541,-110.4089103214452zM-4.319092494728386,-144.1387809936804L-6.379184353330461,-158.44400514884663L-16.402336064201457,-168.4202749374057z" style="fill:rgb(83,212,212)"/><path d="M-102.62608999263722,-61.9053467375857L-118.62814125913576,-89.55175849262126L-123.73641013641456,-94.65339187357075z" style="fill:rgb(25,53,148)"/><path d="M8.876448082077633,-122.67500803804104L-4.282516156183963,-151.73486003400055L-4.319092494728386,-144.1387809936804z" style="fill:rgb(247,158,158)"/><path d="M8.950398861251582,-115.02335751330311L-6.542059930085822,-135.90729574685523L6.884947109127637,-106.77064860026317z" style="fill:rgb(245,141,174)"/><path d="M-87.0710834435094,-55.51820817212541L-111.62395664126139,-85.75786611386057L-95.66481542072847,-57.980897742097405z" style="fill:rgb(55,36,180)"/><path d="M-4.319092494728386,-144.1387809936804L-4.282516156183963,-151.73486003400055L-6.379184353330461,-158.44400514884663z" style="fill:rgb(83,212,212)"/><path d="M-95.66481542072847,-57.980897742097405L-111.62395664126139,-85.75786611386057L-118.62814125913576,-89.55175849262126z" style="fill:rgb(38,43,165)"/><path d="M8.950398861251582,-115.02335751330311L-4.319092494728386,-144.1387809936804L-6.542059930085822,-135.90729574685523z" style="fill:rgb(245,141,174)"/><path d="M-123.73641013641456,-94.65339187357075L-118.62814125913576,-89.55175849262126L-111.62395664126139,-85.75786611386057z" style="fill:rgb(83,212,212)"/><path d="M6.884947109127637,-106.77064860026317L-10.921088708615812,-127.32919868668458L2.7068341521621693,-98.20704060321754z" style="fill:rgb(239,123,188)"/><path d="M-77.1283316383583,-54.6409673280666L-102.9321433519378,-83.44251042908837L-87.0710834435094,-55.51820817212541z" style="fill:rgb(74,33,194)"/><path d="M-25.57820203490541,-110.4089103214452L-4.319092494728386,-144.1387809936804L-16.402336064201457,-168.4202749374057z" style="fill:rgb(83,212,212)"/><path d="M-87.0710834435094,-55.51820817212541L-102.9321433519378,-83.44251042908837L-111.62395664126139,-85.75786611386057z" style="fill:rgb(55,36,180)"/><path d="M6.884947109127637,-106.77064860026317L-6.542059930085822,-135.90729574685523L-10.921088708615812,-127.32919868668458z" style="fill:rgb(239,123,188)"/><path d="M2.7068341521621693,-98.20704060321754L-17.33645034214101,-118.72014769738101L-3.470133754682479,-89.64778535646242z" style="fill:rgb(229,106,201)"/><path d="M-66.18702669261418,-55.412472508573586L-92.83831042878927,-82.72528445333307L-77.1283316383583,-54.6409673280666z" style="fill:rgb(94,32,205)"/><path d="M-123.73641013641456,-94.65339187357075L-111.62395664126139,-85.75786611386057L-92.83831042878927,-82.72528445333307z" style="fill:rgb(83,212,212)"/><path d="M-3.470133754682479,-89.64778535646242L-25.57820203490541,-110.4089103214452L-11.444259475933771,-81.41945287684256z" style="fill:rgb(216,89,211)"/><path d="M-77.1283316383583,-54.6409673280666L-92.83831042878927,-82.72528445333307L-102.9321433519378,-83.44251042908837z" style="fill:rgb(74,33,194)"/><path d="M-54.65161292395605,-57.82832208310819L-81.69792967743471,-83.66451906539213L-66.18702669261418,-55.412472508573586z" style="fill:rgb(116,34,214)"/><path d="M-10.921088708615812,-127.32919868668458L-6.542059930085822,-135.90729574685523L-4.319092494728386,-144.1387809936804z" style="fill:rgb(83,212,212)"/><path d="M2.7068341521621693,-98.20704060321754L-10.921088708615812,-127.32919868668458L-17.33645034214101,-118.72014769738101z" style="fill:rgb(229,106,201)"/><path d="M-123.73641013641456,-94.65339187357075L-92.83831042878927,-82.72528445333307L-25.57820203490541,-110.4089103214452z" style="fill:rgb(83,212,212)"/><path d="M-11.444259475933771,-81.41945287684256L-35.35147614307682,-102.72117603464447L-20.93098273686983,-73.84388511073166z" style="fill:rgb(199,74,218)"/><path d="M-42.96247749376681,-61.81300364481889L-69.92316781986595,-86.25006934347162L-54.65161292395605,-57.82832208310819z" style="fill:rgb(138,40,220)"/><path d="M-111.62395664126139,-85.75786611386057L-102.9321433519378,-83.44251042908837L-92.83831042878927,-82.72528445333307z" style="fill:rgb(83,212,212)"/><path d="M-20.93098273686983,-73.84388511073166L-46.28816109243225,-95.96225216516912L-31.574069307602834,-67.22116842815595z" style="fill:rgb(180,60,221)"/><path d="M-31.574069307602834,-67.22116842815595L-57.96449598821793,-90.4000061836569L-42.96247749376681,-61.81300364481889z" style="fill:rgb(160,49,222)"/><path d="M-66.18702669261418,-55.412472508573586L-81.69792967743471,-83.66451906539213L-92.83831042878927,-82.72528445333307z" style="fill:rgb(94,32,205)"/><path d="M-25.57820203490541,-110.4089103214452L-10.921088708615812,-127.32919868668458L-4.319092494728386,-144.1387809936804z" style="fill:rgb(83,212,212)"/><path d="M-3.470133754682479,-89.64778535646242L-17.33645034214101,-118.72014769738101L-25.57820203490541,-110.4089103214452z" style="fill:rgb(216,89,211)"/><path d="M-54.65161292395605,-57.82832208310819L-69.92316781986595,-86.25006934347162L-81.69792967743471,-83.66451906539213z" style="fill:rgb(116,34,214)"/><path d="M-11.444259475933771,-81.41945287684256L-25.57820203490541,-110.4089103214452L-35.35147614307682,-102.72117603464447z" style="fill:rgb(199,74,218)"/><path d="M-42.96247749376681,-61.81300364481889L-57.96449598821793,-90.4000061836569L-69.92316781986595,-86.25006934347162z" style="fill:rgb(138,40,220)"/><path d="M-20.93098273686983,-73.84388511073166L-35.35147614307682,-102.72117603464447L-46.28816109243225,-95.96225216516912z" style="fill:rgb(180,60,221)"/><path d="M-25.57820203490541,-110.4089103214452L-17.33645034214101,-118.72014769738101L-10.921088708615812,-127.32919868668458z" style="fill:rgb(83,212,212)"/><path d="M-31.574069307602834,-67.22116842815595L-46.28816109243225,-95.96225216516912L-57.96449598821793,-90.4000061836569z" style="fill:rgb(160,49,222)"/><path d="M-92.83831042878927,-82.72528445333307L-81.69792967743471,-83.66451906539213L-69.92316781986595,-86.25006934347162zM-92.83831042878927,-82.72528445333307L-69.92316781986595,-86.25006934347162L-25.57820203490541,-110.4089103214452zM-69.92316781986595,-86.25006934347162L-46.28816109243225,-95.96225216516912L-25.57820203490541,-110.4089103214452zM-46.28816109243225,-95.96225216516912L-35.35147614307682,-102.72117603464447L-25.57820203490541,-110.4089103214452zM-69.92316781986595,-86.25006934347162L-57.96449598821793,-90.4000061836569L-46.28816109243225,-95.96225216516912z" style="fill:rgb(83,212,212)"/></svg>
